<?xml version="1.0" encoding="UTF-8"?>
<svg width="32px" height="32px" viewBox="0 0 32 32" version="1.1" xmlns="http://www.w3.org/2000/svg" xmlns:xlink="http://www.w3.org/1999/xlink">
    <!-- Generator: Sketch 52.6 (67491) - http://www.bohemiancoding.com/sketch -->
    <title>UI / Pictos / Angelist</title>
    <desc>Created with Sketch.</desc>
    <defs>
        <path d="M6.58325647,8.98706196 C6.07882628,8.96092384 5.56457952,8.87825169 5.07647088,8.70521972 C5.24228825,9.13218173 5.4052671,9.55204742 5.55701011,9.94293646 C5.88817178,9.63448302 6.23695598,9.30958977 6.58325647,8.98706196 M2.0057743,7.76649466 C2.05012631,7.91149616 2.07697406,8.05566976 2.13634662,8.18482281 C2.55278241,9.09066825 3.13574522,9.87599449 3.87778391,10.5412746 C3.98387391,10.6363653 4.11125288,10.7112315 4.23709432,10.7805389 C4.39475093,10.8672323 4.56033176,10.8783499 4.70935451,10.7570028 C4.86641976,10.6291507 4.9681337,10.4684191 4.92011526,10.2569487 C4.88238648,10.0900669 4.83259396,9.92495911 4.77475894,9.76363607 C4.49516387,8.98469652 4.13325148,8.24715217 3.6414764,7.57832387 C3.48559387,7.36614386 3.30262705,7.17891924 3.06371756,7.05674424 C2.84408641,6.94438582 2.62989577,6.95018115 2.44326252,7.11883706 C2.32558185,7.22504533 2.21606196,7.34450008 2.12369151,7.47318004 C2.06526513,7.55478774 2.04515888,7.66383455 2.0057743,7.76649466 M8.01056326,6.21748596 C8.02806752,6.17384358 8.04367943,6.13859852 8.05645281,6.10240728 C8.32824192,5.33363912 8.61268614,4.56912875 8.86720754,3.7948018 C9.07997891,3.14678938 9.26069856,2.48789593 9.44886935,1.83195928 C9.49913496,1.65668014 9.49050111,1.4754874 9.4249784,1.30186407 C9.30741601,0.990099013 8.97566298,0.88708408 8.72409839,1.10423152 C8.58524703,1.22404108 8.46307203,1.37673026 8.3735401,1.53698885 C8.22747415,1.79837003 8.09311713,2.07039569 7.99140319,2.35152829 C7.63611403,3.33460536 7.29679159,4.32359603 6.95167383,5.31057607 C6.87349602,5.5341102 6.79685574,5.75823568 6.71619422,5.99170466 C7.15415553,6.06810839 7.57969828,6.14226495 8.01056326,6.21748596 M5.47362833,5.86468051 C5.45825297,5.81595243 5.44760849,5.77964292 5.4353082,5.74404304 C5.11301693,4.81123158 4.79935952,3.87534505 4.46488624,2.94690966 C4.2536524,2.36039869 4.01888243,1.78193022 3.77808059,1.20677336 C3.71669741,1.0603526 3.60930641,0.922447415 3.49363637,0.811508256 C3.23071766,0.559352299 2.84858075,0.664141313 2.74024357,1.01280724 C2.7062995,1.12185405 2.6885587,1.24686758 2.70488024,1.35851637 C2.75242559,1.68199036 2.80044403,2.00806633 2.8851268,2.323143 C3.219127,3.56405308 3.67329158,4.76498722 4.12272527,5.96722235 C4.12603689,5.97597448 4.13881026,5.98106018 4.15004611,5.99040367 C4.2388684,5.85947654 4.3699138,5.81394181 4.51586148,5.81275909 C4.68357121,5.81133982 4.85139921,5.81867269 5.01899067,5.82777964 C5.16647589,5.83570386 5.31336974,5.85131577 5.47362833,5.86468051 M4.2079994,11.5103956 C4.22219204,11.5872724 4.2337827,11.6478277 4.24454545,11.7085012 C4.30935852,12.0733704 4.19451639,12.3710611 3.9048682,12.5996809 C3.56838429,12.8652016 3.18802146,12.8866089 2.80600282,12.7451555 C2.17194649,12.5103856 1.70347101,12.0724243 1.39466275,11.4745592 C1.31837729,11.3268374 1.29259399,11.1482467 1.26740205,10.9804187 C1.24788717,10.850556 1.27213293,10.7170269 1.37597577,10.6040771 C1.40589859,10.6379029 1.4325098,10.6649872 1.45557284,10.6946734 C1.59880026,10.8802423 1.74037188,11.0671121 1.88430893,11.2519712 C2.07709233,11.4996328 2.28584245,11.731446 2.5562123,11.8985644 C2.71185829,11.9948378 2.87862184,12.0584682 3.06501855,12.0499526 C3.41829709,12.0339859 3.62645585,11.7575841 3.48370152,11.4607214 C3.11374663,10.691007 2.59429589,10.0296299 1.95101435,9.47008491 C1.73315728,9.28049485 1.52724569,9.28558055 1.28218605,9.43897936 C1.21654508,9.48013803 1.154334,9.52993055 1.09992886,9.58516358 C0.687514314,10.0033735 0.600347832,10.509696 0.728909523,11.0602523 C0.922639099,11.8888661 1.36509474,12.5845421 1.98235644,13.1504738 C3.26442519,14.3259794 4.77818883,14.5637062 6.40632152,14.0916825 C7.61293271,13.7417156 8.45467471,12.9109729 9.06093711,11.8346975 C9.50552165,11.0457048 9.69321936,10.1842114 9.71994883,9.28510746 C9.73272221,8.8511674 9.72326045,8.41817352 9.63041691,7.99062015 C9.55152947,7.62787985 9.36052015,7.35419838 9.02143426,7.19358498 C8.88400216,7.12853536 8.74657007,7.06064722 8.60334265,7.01097297 C7.44676052,6.61026735 6.2512669,6.45355692 5.03188232,6.45757817 C4.93513581,6.45793298 4.83697003,6.47425452 4.74247068,6.4958983 C4.54885937,6.54025031 4.44537135,6.66916682 4.41757743,6.86419739 C4.35418362,7.3089002 4.55784805,7.6885534 4.99084193,7.92261374 C5.27268416,8.0749481 5.57983661,8.14993257 5.89242957,8.20398288 C6.61589955,8.32923296 7.34658412,8.33207148 8.0776235,8.33006086 C8.3050606,8.3294695 8.40074267,8.4059915 8.47052317,8.62112831 C8.50434896,8.72556251 8.4911025,8.80137488 8.38643176,8.84962986 C8.13865186,8.96388064 7.89607594,9.09090479 7.64238245,9.19037157 C6.89147336,9.48475064 6.33417558,9.99615887 5.92069659,10.6794164 C5.55689184,11.2808296 5.47197253,11.9094454 5.71206474,12.577091 C5.77143729,12.7421987 5.82371353,12.9107364 5.86475392,13.0810481 C5.88793524,13.1777946 5.88166682,13.2816374 5.88899968,13.3860716 C5.61153351,13.3684491 5.40846045,13.247102 5.24832013,13.0138696 C5.03649493,12.7054161 4.95252179,12.3539117 4.91585747,11.9888059 C4.89811666,11.8129354 4.89314924,11.6356457 4.88155858,11.4436902 C4.6700882,11.6193241 4.44738198,11.5684672 4.2079994,11.5103956 M1.57632858,8.67399591 C1.49483915,8.43496815 1.41074774,8.20540215 1.33836527,7.97205144 C1.24611309,7.67483384 1.29436807,7.3934647 1.45935755,7.13149216 C1.64788315,6.8320274 1.89566305,6.59193519 2.19595572,6.40624811 C2.52404231,6.20341159 2.86324648,6.22162548 3.20528917,6.36603562 C3.31859377,6.41393579 3.42835021,6.46999673 3.5641265,6.53386362 C3.51185026,6.38283025 3.46607899,6.256634 3.42432896,6.12890021 C3.05875014,5.01063822 2.68418263,3.89533303 2.33445226,2.77222188 C2.21215898,2.37955876 2.1241646,1.97128373 2.07011428,1.56360006 C2.00388195,1.0641373 2.1051228,0.595661811 2.51469882,0.247350699 C2.73988876,0.0558682907 3.01203269,-0.0106005871 3.30085297,0.0013448874 C3.49044303,0.00915084102 3.6363907,0.121982352 3.76648993,0.249361323 C4.06902977,0.545514473 4.2794357,0.906598964 4.47411145,1.27702694 C4.97061741,2.22190215 5.33619624,3.22118249 5.68734588,4.22590333 C5.82229426,4.61217977 5.95310312,4.99987546 6.0859226,5.38686153 C6.09195448,5.40401097 6.0998787,5.42056905 6.11951186,5.46752305 C6.14647788,5.3958502 6.16386387,5.35137992 6.17983059,5.30631828 C6.53015233,4.31023129 6.86675451,3.30870378 7.30814571,2.3472705 C7.55911894,1.80049893 7.82629545,1.26247949 8.20594865,0.789864475 C8.25467672,0.729072655 8.31050112,0.673839619 8.3617129,0.614940151 C8.92859072,-0.0352011682 9.79741701,0.3526128 10.0287571,0.949649981 C10.1715114,1.31794907 10.1611035,1.68967804 10.086119,2.06661098 C9.90717345,2.96689763 9.62544949,3.83832591 9.3358013,4.7071522 C9.16099524,5.23192518 8.97341581,5.75255863 8.79186826,6.2752027 C8.77921315,6.31139394 8.7692783,6.34841309 8.75520393,6.39477572 C8.83633854,6.41452715 8.91155954,6.43179487 8.98618919,6.45107321 C9.74017335,6.64563069 10.1827473,7.13042771 10.3315335,7.89138992 C10.4571384,8.53313393 10.4624606,9.17854436 10.4052169,9.82738469 C10.3396942,10.572735 10.1711566,11.2926568 9.83266207,11.961012 C9.04792719,13.5099024 7.83303695,14.5310631 6.10993183,14.874052 C4.66724967,15.1610982 3.28867095,14.974938 2.05284657,14.1350884 C1.17834322,13.541008 0.506912932,12.7645522 0.167708766,11.7394885 C-0.0149032401,11.1872764 -0.0468366867,10.6221727 0.0643390164,10.0522198 C0.201534565,9.34861954 0.654279875,8.94117241 1.32145237,8.74365813 C1.4067265,8.71846619 1.4929468,8.69670414 1.57632858,8.67399591" id="path-1"></path>
    </defs>
    <g id="Landing-Page" stroke="none" stroke-width="1" fill="none" fill-rule="evenodd">
        <g id="Closers-/-UI---Landing-Page" transform="translate(-927.000000, -4569.000000)">
            <g id="footer" transform="translate(0.000000, 4274.000000)">
                <g id="UI-/-Pictos-/-Angelist" transform="translate(927.000000, 295.000000)">
                    <circle id="Oval-Copy-2" fill="#EBEEF2" cx="16" cy="16" r="16"></circle>
                    <g id="Atoms-/-icons-/-System-/-SM-Twitter-Copy" transform="translate(4.000000, 4.000000)">
                        <g id="â†ªðŸŽ¨" transform="translate(7.000000, 5.000000)">
                            <mask id="mask-2" fill="white">
                                <use xlink:href="#path-1"></use>
                            </mask>
                            <use id="Mask" fill="#000000" xlink:href="#path-1"></use>
                            <g id="âš™ï¸Atoms/Colour/Brow" mask="url(#mask-2)" fill="#303030">
                                <g transform="translate(-7.000000, -5.000000)" id="Rectangle">
                                    <rect x="0" y="0" width="24" height="24"></rect>
                                </g>
                            </g>
                        </g>
                    </g>
                </g>
            </g>
        </g>
    </g>
</svg>