<?xml version="1.0" encoding="UTF-8"?>
<svg width="30px" height="32px" viewBox="0 0 30 32" version="1.1" xmlns="http://www.w3.org/2000/svg" xmlns:xlink="http://www.w3.org/1999/xlink">
    <!-- Generator: Sketch 52.5 (67469) - http://www.bohemiancoding.com/sketch -->
    <title>UI / Logos / icon Gold</title>
    <desc>Created with Sketch.</desc>
    <defs>
        <polygon id="path-1" points="0.090244898 0.229530612 24.7616327 0.229530612 24.7616327 6.73463265 0.090244898 6.73463265"></polygon>
    </defs>
    <g id="UI-/-Logos-/-icon-Gold" stroke="none" stroke-width="1" fill-rule="evenodd">
        <g id="Group-10" transform="translate(1.000000, 1.000000)">
            <path d="M6.12244898e-05,13.4700612 C0.142714286,12.0135306 0.494755102,10.6188367 1.02495918,9.31536735 L7.6114898,9.31536735 C6.68944898,10.5025102 6.05271429,11.9216939 5.80291837,13.4700612 L6.12244898e-05,13.4700612 Z" id="Fill-1"></path>
            <path d="M0.967469388,20.4346531 C0.469714286,19.1728163 0.137877551,17.827102 0.00012244898,16.424449 L5.80236735,16.424449 C6.04297959,17.9109796 6.63930612,19.2775102 7.50195918,20.4346531 L0.967469388,20.4346531 Z" id="Fill-3"></path>
            <g id="Group-7" transform="translate(2.448980, 23.159939)">
                <mask id="mask-2" fill="white">
                    <use xlink:href="#path-1"></use>
                </mask>
                <g id="Clip-6"></g>
                <path d="M24.7618776,0.229530612 C24.2390204,0.992387755 23.6469796,1.70442857 22.995551,2.35708163 C20.2906531,5.06136735 16.5535102,6.73463265 12.4263673,6.73463265 C8.298,6.73463265 4.56146939,5.06136735 1.85657143,2.35708163 C1.20453061,1.70442857 0.613102041,0.992387755 0.090244898,0.229530612 L8.78779592,0.229530612 C9.90330612,0.711367347 11.1333061,0.978306122 12.4263673,0.978306122 C13.7182041,0.978306122 14.9488163,0.711367347 16.0649388,0.229530612 L24.7618776,0.229530612 Z" id="Fill-5" mask="url(#mask-2)"></path>
            </g>
            <path d="M14.875102,0.00012244898 C19.0022449,0.00012244898 22.74,1.67338776 25.444898,4.37767347 C26.0553061,4.98869388 26.612449,5.65236735 27.1108163,6.36073469 L18.1585714,6.36073469 C17.1391837,5.97073469 16.0322449,5.75644898 14.875102,5.75644898 C13.7179592,5.75644898 12.6104082,5.97073469 11.5910204,6.36073469 L2.63877551,6.36073469 C3.13714286,5.65236735 3.69489796,4.98869388 4.30530612,4.37767347 C7.01020408,1.67338776 10.7473469,0.00012244898 14.875102,0.00012244898" id="Fill-8"></path>
        </g>
    </g>
</svg>
